<svg xmlns="http://www.w3.org/2000/svg" width="512" height="512" viewBox="0 0 512 512">
  <defs>
    <linearGradient id="bg" x1="0" x2="1" y1="0" y2="1">
      <stop offset="0%" stop-color="#d4af37"/>
      <stop offset="100%" stop-color="#7c5811"/>
    </linearGradient>
  </defs>
  <rect width="512" height="512" rx="110" fill="#0a0a0a"/>
  <rect x="26" y="26" width="460" height="460" rx="96" fill="url(#bg)"/>
  <path d="M122 290h24l20 56h42l18-56h120l18 56h42l20-56h24c19 0 34-15 34-34v-62c0-22-11-42-29-55l-35-24-34-70c-14-28-42-45-73-45H204c-31 0-59 17-73 45l-34 70-35 24c-18 13-29 33-29 55v62c0 19 15 34 34 34zm103-163h62c17 0 32 9 40 24l18 37H167l18-37c8-15 23-24 40-24zm-60 134a30 30 0 1 1 0-60 30 30 0 0 1 0 60zm182 0a30 30 0 1 1 0-60 30 30 0 0 1 0 60z" fill="#111"/>
  <circle cx="165" cy="261" r="17" fill="#fff3bf"/>
  <circle cx="347" cy="261" r="17" fill="#fff3bf"/>
  <text x="256" y="432" text-anchor="middle" font-family="Arial, sans-serif" font-size="64" font-weight="700" fill="#111">LUX</text>
</svg>